. 
 
http://www.torrenting.com          :     Once & For all ;)


               www . Torrenting . Com 

(((((((((((((= Enjoy No RAR releases =))))))))))))))))))))


...................................NFO:....................................

.[img]http://img717.imageshack.us/img717/544/realrc.jpg[/img]



[color=blue][size=5][b]Real.Steel.2011.BDRip.XVID.AC3.HQ.Hive-CM8[/b][/size][/color]


[b] Thx Hive

CM8 Doing it right the first time :D

Source: Bluray

Video: 720x304 @bitrate 1700 2pass
Audio: English DTS to AC3 5.1 @448
Sample: yes included
Subs: yes english in srt /subs[/b]


[url]http://www.imdb.com/title/tt0433035/[/url]


General
Complete name                  : Real.Steel.2011.BDRip.XVID.AC3.HQ.Hive-CM8.avi
Format                         : AVI
Format/Info                    : Audio Video Interleave
File size                      : 1.91 GiB
Duration                       : 2h 6mn
Overall bit rate               : 2 157 Kbps
Writing application            : Nandub v1.0rc2
Writing library                : Nandub build 1853/release

Video
ID                             : 0
Format                         : MPEG-4 Visual
Format profile                 : Advanced Simple@L5
Format settings, BVOP          : 1
Format settings, QPel          : Yes
Format settings, GMC           : No warppoints
Format settings, Matrix        : Default (H.263)
Muxing mode                    : Packed bitstream
Codec ID                       : XVID
Codec ID/Hint                  : XviD
Duration                       : 2h 6mn
Bit rate                       : 1 700 Kbps
Width                          : 720 pixels
Height                         : 304 pixels
Display aspect ratio           : 2.35:1
Frame rate                     : 23.976 fps
Color space                    : YUV
Chroma subsampling             : 4:2:0
Bit depth                      : 8 bits
Scan type                      : Progressive
Compression mode               : Lossy
Bits/(Pixel*Frame)             : 0.324
Stream size                    : 1.51 GiB (79%)
Writing library                : XviD 1.2.1 (UTC 2008-12-04)

Audio
ID                             : 1
Format                         : AC-3
Format/Info                    : Audio Coding 3
Mode extension                 : CM (complete main)
Codec ID                       : 2000
Duration                       : 2h 6mn
Bit rate mode                  : Constant
Bit rate                       : 448 Kbps
Channel(s)                     : 6 channels
Channel positions              : Front: L C R, Side: L R, LFE
Sampling rate                  : 48.0 KHz
Bit depth                      : 16 bits
Compression mode               : Lossy
Stream size                    : 406 MiB (21%)
Alignment                      : Split accross interleaves
Interleave, duration           : 42 ms (1.00 video frame)
Interleave, preload duration   : 500 ms



A future-set story where robot boxing is a popular sport and centered on a struggling promoter (Jackman) 
who thinks he's found a champion in a discarded robot. During his hopeful rise to the top, he also 
discovers he has an 11-year-old son who wants to know his father.

Hugh Jackman 	        ... 	Charlie Kenton
Dakota Goyo     	... 	Max Kenton
Evangeline Lilly 	... 	Bailey Tallet
Anthony Mackie   	... 	Finn
Kevin Durand 	        ... 	Ricky



[img]http://img716.imageshack.us/img716/1087/35392449.png[/img]
[img]http://img834.imageshack.us/img834/6420/rerex.png[/img]
[img]http://img542.imageshack.us/img542/903/rerere.png[/img]
[img]http://img600.imageshack.us/img600/5463/rererere.png[/img]
[img]http://img703.imageshack.us/img703/5989/rerererere.png[/img]
[img]http://img13.imageshack.us/img13/3254/rererererere.png[/img]
[img]http://img687.imageshack.us/img687/6195/rerererererere.png[/img]
[img]http://img51.imageshack.us/img51/1946/rererererererere.png[/img]
[img]http://img543.imageshack.us/img543/3853/rerererreerererere.png[/img]




Greetz

ViSiON,SPK,SceneLovers,PRESTiGE,SANTi,3LT0N,YanKeeS,MAGNET,THC,T0XiC,LKRG,Feel-Free,FLAWL3SS,
WBZ,BHRG,SiC,26K,NOVA,D2U,SeToNeUp,Rapeseed,SAFC,goldadvance,KaN1vE,Unevano,Pinnz,Wayne
Mr Hive,and most P2P groups
Great Work Guys :D

LOOKING FOR ANYTHING YOU WANT TO LOOK AND SOUND BETTER

CM8@hushmail.com

THIS IS FOR MY SPECIAL FRIEND diannamay WHO THINKS CHOICE OF RELEASES IS OVER RATED :D
ENJOY YA NUMPTY